<svg width="440" height="956" viewBox="0 0 440 956" fill="none" xmlns="http://www.w3.org/2000/svg">
<path d="M282.114 833.265C274.813 834.122 274.536 826.938 275.277 822.321C275.277 822.658 275.277 821.466 275.79 820.953C276.132 820.782 278.446 819.806 278.504 822.511C278.675 830.377 280.15 830.013 281.004 830.013C284.198 830.013 286.217 826.596 287.414 823.347C288.371 820.748 291.004 822.15 291.004 823.347C291.061 825.798 288.504 832.514 282.114 833.265Z" fill="white"/>
<path d="M316.352 833.765C307.602 834.872 304.361 827.128 305.102 822.511C305.102 821.261 305.767 820.303 306.352 820.01C306.694 819.839 308.793 819.806 308.852 822.511C309.023 830.377 311.899 830.61 314.328 830.61C317.521 830.61 317.655 828.261 318.852 825.012C319.809 822.413 322.602 823.815 322.602 825.012C322.659 827.463 320.832 833.199 316.352 833.765Z" fill="white"/>
<path d="M308.945 840.974C306.049 843.897 302.627 844.485 301.278 844.413C300.093 844.35 300 845.273 300 846.132C300 846.777 300.097 847.195 301.278 847.422C304.856 848.11 310.01 844.986 312.14 843.338C313.204 842.694 311.842 838.051 308.945 840.974Z" fill="white"/>
<path d="M300.255 795.989C320.079 795.989 336.151 809.463 336.151 826.084C336.151 826.208 336.146 826.333 336.144 826.458C336.546 832.553 336.263 843.842 336.834 847.628C337.928 854.877 339.873 862.503 338.202 863.872C330.681 870.027 322.23 868.666 321.279 867.292C319.741 865.069 319.365 860.555 321.279 856.177C323.194 851.8 328.572 851.161 331.022 851.389L331.881 840.54C325.765 850.422 313.721 857.522 300 857.522C287.186 858.323 277.565 853.615 271.945 844.732C272.726 849.343 273.559 854.56 274.101 858.058C274.842 861.307 276.05 868.556 274.956 871.566C273.862 874.575 266.067 875.1 262.307 874.986C260.141 875.157 255.538 873.447 254.444 865.24C253.35 857.032 262.763 854.183 267.606 853.784C268.649 852.22 267.769 839.957 266.788 829.797C266.621 828.592 266.495 827.354 266.41 826.084C266.196 824.956 266.083 823.84 266.057 822.74C266.002 822.238 265.949 821.756 265.896 821.296C265.947 821.478 266.002 821.668 266.057 821.867C266.361 807.514 282.171 795.989 300.255 795.989ZM303.332 807.788C302.477 808.813 289.334 815.866 288.974 815.824C283.268 814.946 279.852 812.887 277.908 810.752C273.93 815.34 271.941 821.496 272.5 828.763C272.662 839.295 274.46 843.993 281.25 848.769C287.5 852.52 290 852.521 298.75 852.521C316.764 852.521 331.116 842.054 332.678 828.234C333.307 824.055 332.281 819.988 330.05 816.345C321.873 818.654 309.159 813.063 303.332 807.788Z" fill="white"/>
<path d="M298.887 785.046C315.023 784.499 324.528 789.016 328.459 791.201C333.074 793.766 335.011 797.186 335.467 798.725C336.882 803.503 338.66 809.533 339.498 814.057C339.831 813.983 340.183 813.908 340.556 813.833C346.35 812.672 349.241 813.31 350 825.93C349.605 837.807 348.123 839.52 342.074 839.072C333.478 838.436 334.653 839.519 333.913 827.223C334.029 819.39 333.149 816.709 336.005 815.181L335.979 815.14C333.416 800.606 332.732 800.264 331.193 798.383C329.987 796.908 328.116 795.476 327.433 795.305C301.964 786.584 275.127 796.16 271.195 797.528C268.803 798.361 267.682 799.18 267.094 800.264C262.826 808.119 263.274 814.154 262.311 820.415C267.896 821.635 266.69 823.909 267.436 833.606C267.436 846.602 268.632 845.387 259.401 846.602C252.906 847.457 251.197 845.747 250 833.265C250 821.259 252.493 819.369 257.604 819.734C258.206 814.506 259.392 804.313 259.914 800.264C260.461 796.023 263.561 793.709 265.042 793.082C269.6 790.631 282.751 785.593 298.887 785.046Z" fill="white"/>
<path d="M278.855 406.873C249.488 399.004 235.067 368.782 244.471 333.685C255.091 294.052 286.609 273.837 322.184 283.369C334.599 286.695 341.326 293.104 343.475 293.68C345.385 294.192 346.119 293.365 346.63 291.455L349.317 281.427C354.115 263.52 348.594 260.25 351.217 250.461C353.392 242.343 360.717 241.747 370.366 242.029C378.757 242.23 384.137 243.16 385.57 243.544C390.345 244.823 392.902 249.603 391.559 254.617L358.676 377.337C354.07 394.527 360.793 404.773 358.938 411.697C356.954 419.099 349.979 420.3 338.945 420.415C331.032 420.341 328.755 420.243 326.129 419.539C321.354 418.26 320.565 411.651 320.715 406.318C321.231 400.57 320.882 399.965 319.927 399.709C316.584 398.813 301.776 413.014 278.855 406.873ZM279.969 340.638C272.484 368.572 277.433 384.484 292.475 388.515C307.039 392.417 322.128 382.898 327.63 362.365L337.738 324.642C339.849 316.763 333.156 308.316 319.308 304.605C301.402 299.807 287.774 311.51 279.969 340.638Z" fill="white"/>
<path d="M165.958 282.944C203.529 282.944 228.989 309.145 228.989 347.951C228.989 386.758 203.529 413.454 165.958 413.454C128.14 413.454 102.681 387.005 102.681 348.199C102.681 309.886 128.388 282.944 165.958 282.944ZM138.769 349.187C138.769 376.871 147.173 392.196 165.958 392.196C184.25 392.196 193.148 375.635 193.148 346.963C193.148 319.279 184.497 304.201 165.958 304.201C147.42 304.201 138.769 320.515 138.769 349.187Z" fill="white"/>
<path d="M299.985 486.931C299.985 528.428 271.046 556.547 228.185 556.547C185.323 556.547 155.838 528.428 155.838 486.931C155.839 445.161 185.05 417.042 227.912 417.042C270.227 417.042 299.985 445.434 299.985 486.931ZM226.82 456.901C196.243 456.901 179.317 466.183 179.317 486.931C179.317 507.133 197.608 516.961 229.277 516.961C259.853 516.961 276.506 507.406 276.506 486.931C276.506 466.456 258.488 456.901 226.82 456.901Z" fill="white"/>
<path d="M93.4199 558.868C78.1317 558.868 69.1225 553.408 65.0274 553.408C62.0244 553.408 59.2943 555.046 56.0183 555.046C51.6502 555.046 47.2822 551.224 43.7331 544.944C40.4571 538.665 38 530.202 38 525.288C38 519.009 41.8221 515.187 47.2822 515.187C53.0152 515.187 56.8373 517.098 62.2974 523.377C68.8495 529.929 75.9476 538.119 93.6929 538.119C106.251 538.119 114.714 531.294 114.714 520.92C114.714 512.73 109.527 509.454 84.4108 502.902C53.0153 494.985 39.6381 481.607 39.6381 458.948C39.6381 433.286 61.7514 414.721 91.7819 414.721C101.883 414.721 108.981 417.997 113.076 417.997C116.352 417.997 119.082 416.359 122.358 416.359C126.726 416.359 131.095 419.635 134.917 426.734C138.466 432.74 140.923 440.93 140.923 445.844C140.923 452.123 137.101 455.945 131.367 455.945C125.634 455.945 122.085 454.034 116.352 448.028C109.527 441.476 104.067 435.743 91.5089 435.743C79.2237 435.743 71.3066 441.476 71.3066 450.485C71.3066 459.221 77.3126 463.043 100.791 469.049C134.098 477.512 146.383 489.252 146.383 513.822C146.383 540.576 124.815 558.868 93.4199 558.868Z" fill="white"/>
<path d="M97.1264 807.374C89.4823 794.134 89.7063 783.602 87.6588 780.055C86.1573 777.454 83.3737 775.909 81.7357 773.072C79.5516 769.289 80.6776 763.595 84.3409 757.382C88.1408 751.406 94.2415 745.046 98.4972 742.589C103.935 739.45 109.156 740.848 111.886 745.577C114.753 750.542 115.009 754.808 112.301 762.676C109.903 771.626 106.359 781.868 115.232 797.236C121.511 808.112 131.653 812.029 140.637 806.841C147.73 802.746 147.974 796.616 141.09 771.589C132.248 740.441 137.145 722.167 156.768 710.838C178.993 698.006 206.127 707.875 221.142 733.882C226.192 742.63 226.904 750.415 228.952 753.962C230.59 756.799 233.373 758.344 235.011 761.181C237.195 764.964 236.542 770.385 232.306 777.244C228.879 783.321 223.015 789.543 218.759 792.001C213.321 795.14 208.1 793.741 205.234 788.776C202.367 783.811 202.248 779.782 204.583 771.814C206.844 762.627 209.079 755.032 202.8 744.156C196.658 733.517 187.734 729.527 179.932 734.032C172.366 738.4 172.059 745.512 178.597 768.848C187.921 801.924 183.897 818.433 162.619 830.718C139.449 844.095 112.824 834.563 97.1264 807.374Z" fill="white"/>
<path d="M285.609 750.054C252.487 750.054 231.477 739.178 231.477 718.909C231.477 712.483 235.184 705.809 241.117 702.348C242.353 701.36 242.847 700.371 242.847 699.63C242.847 698.641 242.353 697.899 241.364 697.158C233.454 691.967 229.005 684.057 229.005 674.417C229.005 661.811 235.679 653.407 247.79 648.217C250.509 647.228 251.498 646.239 251.498 645.25C251.498 644.015 250.509 642.779 248.532 641.296C239.634 634.622 233.701 623.993 233.701 610.646C233.701 582.962 256.442 565.165 291.541 565.165C309.338 565.165 320.213 567.637 325.899 567.637C336.033 567.637 342.954 560.716 350.369 560.716C354.324 560.716 357.29 564.176 357.29 568.625C357.29 576.535 341.224 583.209 341.224 585.928C341.224 588.4 349.38 595.321 349.38 610.646C349.38 640.307 324.168 656.621 278.688 656.621C259.902 656.621 254.711 658.598 254.711 665.272C254.711 671.204 259.408 674.417 268.801 674.417C282.148 674.417 303.653 671.946 316.753 671.946C343.695 671.946 357.29 680.35 357.29 705.315C357.29 731.268 328.618 750.054 285.609 750.054ZM259.408 712.236C259.408 724.842 270.036 731.268 287.586 731.268C311.809 731.268 324.91 723.853 324.91 713.471C324.91 705.067 320.214 701.113 308.596 701.113C272.508 701.113 259.408 705.315 259.408 712.236ZM269.542 611.881C269.542 626.712 276.957 635.363 291.541 635.363C305.63 635.363 313.293 625.476 313.293 609.904C313.293 595.073 305.877 586.422 291.541 586.422C277.452 586.422 269.542 596.309 269.542 611.881Z" fill="white"/>
<path d="M117.6 694.277C101.78 694.277 97.0839 689.087 97.0839 681.671C97.0839 676.728 100.792 671.537 100.792 653.246V611.226C100.792 592.935 94.3649 591.204 94.3649 581.07C94.3649 572.419 101.286 569.947 110.926 567.723C118.835 565.745 124.273 565.251 125.756 565.251C130.7 565.251 134.408 569.206 134.408 574.396V577.61C134.408 580.576 135.396 581.07 136.632 581.07C139.846 581.07 147.755 565.251 169.754 565.251C198.179 565.251 211.774 583.048 211.774 613.945V653.246C211.774 671.537 215.482 676.728 215.482 681.671C215.482 689.087 210.538 694.277 194.719 694.277C176.922 694.277 172.226 689.087 172.226 681.671C172.226 676.728 177.911 671.537 177.911 653.246V616.664C177.911 595.901 173.709 586.508 159.867 586.508C145.036 586.508 134.408 603.316 134.408 621.113V653.246C134.408 671.537 140.34 676.728 140.34 681.671C140.34 689.087 135.644 694.277 117.6 694.277Z" fill="white"/>
<path d="M286.635 130.125C324.206 130.125 349.665 156.326 349.665 195.132C349.665 233.939 324.206 260.635 286.635 260.635C248.817 260.635 223.358 234.187 223.358 195.38C223.358 157.067 249.064 130.125 286.635 130.125ZM259.446 196.368C259.446 224.052 267.85 239.377 286.635 239.377C304.926 239.377 313.825 222.816 313.825 194.144C313.825 166.46 305.173 151.382 286.635 151.382C268.097 151.382 259.446 167.696 259.446 196.368Z" fill="white"/>
<path d="M139.88 272.338C106.759 272.338 85.7485 261.462 85.7485 241.194C85.7485 234.767 89.4562 228.093 95.3884 224.633C96.6243 223.644 97.1187 222.655 97.1187 221.914C97.1187 220.925 96.6243 220.184 95.6356 219.442C87.7259 214.251 83.2767 206.342 83.2767 196.702C83.2767 184.096 89.9505 175.692 102.062 170.501C104.781 169.512 105.77 168.523 105.77 167.535C105.77 166.299 104.781 165.063 102.804 163.58C93.9054 156.906 87.9731 146.277 87.9731 132.93C87.9731 105.246 110.713 87.4492 145.813 87.4492C163.609 87.4492 174.485 89.921 180.17 89.921C190.305 89.921 197.226 83 204.641 83C208.596 83 211.562 86.4605 211.562 90.9097C211.562 98.8194 195.495 105.493 195.495 108.212C195.495 110.684 203.652 117.605 203.652 132.93C203.652 162.591 178.44 178.905 132.959 178.905C114.174 178.905 108.983 180.882 108.983 187.556C108.983 193.488 113.68 196.702 123.072 196.702C136.42 196.702 157.924 194.23 171.025 194.23C197.967 194.23 211.562 202.634 211.562 227.599C211.562 253.553 182.889 272.338 139.88 272.338ZM113.68 234.52C113.68 247.126 124.308 253.553 141.858 253.553C166.081 253.553 179.182 246.137 179.182 235.756C179.182 227.352 174.485 223.397 162.868 223.397C126.78 223.397 113.68 227.599 113.68 234.52ZM123.814 134.166C123.814 148.996 131.229 157.648 145.813 157.648C159.902 157.648 167.564 147.761 167.564 132.188C167.564 117.358 160.149 108.706 145.813 108.706C131.724 108.706 123.814 118.594 123.814 134.166Z" fill="white"/>
</svg>
