<svg width="40" height="36" viewBox="0 0 40 36" fill="none" xmlns="http://www.w3.org/2000/svg">
<path d="M12.8458 19.2994C9.92529 19.6423 9.81458 16.7696 10.1109 14.9235C10.1109 15.0581 10.1109 14.5816 10.316 14.3765C10.4528 14.3081 11.3783 13.9175 11.4018 14.9994C11.4702 18.1446 12.0599 17.9993 12.4018 17.9993C13.6791 17.9993 14.4868 16.6328 14.9654 15.3337C15.3483 14.2945 16.4018 14.8552 16.4018 15.3338C16.4246 16.3138 15.4018 18.9994 12.8458 19.2994Z" fill="currentColor"/>
<path d="M26.5409 19.4994C23.0409 19.9419 21.7446 16.8454 22.0409 14.9993C22.0409 14.4993 22.3068 14.1163 22.5409 13.9993C22.6776 13.9309 23.5173 13.9175 23.5409 14.9993C23.6092 18.1445 24.7596 18.2377 25.7311 18.2377C27.0084 18.2377 27.0622 17.2984 27.5409 15.9993C27.9238 14.96 29.0409 15.5206 29.0409 15.9993C29.0637 16.9793 28.333 19.2728 26.5409 19.4994Z" fill="currentColor"/>
<path d="M23.578 22.3821C22.4195 23.5509 21.0507 23.7858 20.5112 23.7572C20.0372 23.732 20 24.1009 20 24.4447C20 24.7025 20.0386 24.8695 20.5112 24.9603C21.9424 25.2353 24.004 23.9863 24.8559 23.3274C25.2818 23.0696 24.7366 21.2133 23.578 22.3821Z" fill="currentColor"/>
<path d="M20.102 4.3938C28.0317 4.39402 34.4613 9.78202 34.4613 16.428C34.4613 16.4847 34.4594 16.5413 34.4584 16.5979C34.6171 19.0401 34.506 23.5339 34.7338 25.0432C35.1714 27.9421 35.9492 30.9914 35.2807 31.5383C32.2723 33.9997 28.8927 33.4551 28.5121 32.9055C27.8968 32.0167 27.7463 30.2116 28.5121 28.4612C29.2779 26.7114 31.4285 26.4561 32.4086 26.5471L32.7514 22.2092C30.3046 26.16 25.4883 28.9991 20.0004 28.9993C14.8727 29.3197 11.023 27.4352 8.7758 23.8801C9.08853 25.7251 9.42396 27.8131 9.64103 29.2131C9.93732 30.5122 10.4204 33.4121 9.98283 34.6155C9.54484 35.8185 6.42748 36.0282 4.92326 35.9827C4.05719 36.051 2.21535 35.3671 1.77775 32.0852C1.34017 28.8033 5.10512 27.6637 7.0424 27.5042C7.46036 26.8772 7.1049 21.9521 6.71134 17.884C6.64647 17.4113 6.59805 16.9257 6.56486 16.428C6.48059 15.9832 6.43411 15.5429 6.42326 15.1086C6.40035 14.9016 6.38045 14.7023 6.35881 14.5129C6.37906 14.5859 6.4011 14.6621 6.42326 14.7415C6.54463 9.00225 12.8688 4.39401 20.102 4.3938ZM21.3334 9.11157C20.9919 9.52136 15.7373 12.3401 15.5893 12.3254C13.3085 11.9745 11.9422 11.1513 11.1645 10.2981C9.57322 12.1326 8.77689 14.5935 9.00041 17.4993C9.06541 21.7108 9.78423 23.5895 12.5004 25.4993C15.0001 26.999 16.0006 26.9993 19.5004 26.9993C26.5929 26.9991 32.2669 22.9439 33.0385 17.5461L33.1049 17.0286C33.2793 15.4482 32.8659 13.9139 32.019 12.5325C28.7483 13.4551 23.6639 11.2208 21.3334 9.11157Z" fill="currentColor"/>
<path d="M19.5547 0.0182279C26.0092 -0.200569 29.8112 1.6055 31.3838 2.47917C33.2298 3.50477 34.0042 4.87261 34.1865 5.48795C34.7527 7.39875 35.4636 9.80986 35.7988 11.6188C35.9321 11.5893 36.0733 11.5589 36.2227 11.529C38.54 11.065 39.6963 11.3209 40 16.3669C39.842 21.1155 39.2493 21.8007 36.8301 21.6217C33.3915 21.3673 33.8613 21.8002 33.5654 16.8835C33.612 13.7518 33.2594 12.6791 34.4014 12.068L34.3916 12.0514C33.3661 6.24031 33.0928 6.10324 32.4775 5.35124C31.9954 4.76192 31.2475 4.18968 30.9736 4.12077C20.7862 0.633783 10.0515 4.4623 8.47852 5.00944C7.52129 5.34239 7.07235 5.66998 6.83691 6.10319C5.13004 9.24395 5.30916 11.6575 4.92383 14.1608C7.15841 14.6487 6.67532 15.5581 6.97363 19.4362C6.97364 24.6324 7.45267 24.1467 3.76074 24.6325C1.16261 24.9744 0.478648 24.2906 0 19.2995C3.00503e-05 14.4991 0.996969 13.7442 3.04102 13.8903C3.28182 11.7999 3.75685 7.72275 3.96582 6.10319C4.18463 4.40764 5.42401 3.48187 6.0166 3.23112C7.83988 2.2511 13.1003 0.237053 19.5547 0.0182279Z" fill="currentColor"/>
</svg>
